<svg version="1.1" id="Layer_1" xmlns="http://www.w3.org/2000/svg" xmlns:xlink="http://www.w3.org/1999/xlink" x="0px" y="0px"
	 width="100%" viewBox="0 0 525 339" enable-background="new 0 0 525 339" xml:space="preserve">
<path fill="#FDFEFE" opacity="1.000000" stroke="none" 
	d="
M374.000000,340.000000 
	C249.333374,340.000000 125.166740,340.000000 1.000083,340.000000 
	C1.000056,227.000076 1.000056,114.000145 1.000028,1.000159 
	C175.999878,1.000106 350.999756,1.000106 525.999756,1.000053 
	C525.999817,113.999847 525.999817,226.999695 525.999878,339.999756 
	C475.500000,340.000000 425.000000,340.000000 374.000000,340.000000 
M165.407623,127.478340 
	C168.673187,124.246223 171.938736,121.014099 175.204285,117.781982 
	C174.782608,117.273483 174.360931,116.764977 173.939255,116.256477 
	C169.965164,119.189644 165.991058,122.122810 161.347885,125.156128 
	C157.900177,129.105209 154.452454,133.054276 150.548340,137.526337 
	C141.559708,152.784851 145.307281,164.285080 161.536880,171.197159 
	C162.913162,171.783310 164.310135,172.355118 165.746201,172.761505 
	C182.346268,177.459137 199.211777,177.392624 217.075211,175.465988 
	C224.719620,174.318314 232.364044,173.170624 240.858444,172.097229 
	C251.906219,169.398392 262.954010,166.699570 274.789764,164.022980 
	C279.239349,162.478760 283.688934,160.934540 288.929993,159.335358 
	C294.608856,157.194870 300.287750,155.054367 306.705688,152.876358 
	C313.132355,149.847092 319.559052,146.817841 326.660370,143.651840 
	C332.802795,139.850830 338.945251,136.049805 345.755859,132.055222 
	C349.132050,129.107162 352.861603,126.469719 355.795044,123.132507 
	C359.472015,118.949440 362.442932,114.140038 359.409729,108.188911 
	C356.849792,103.166382 349.771973,99.715492 343.520264,100.282593 
	C352.306976,107.754433 352.590637,112.321564 344.829803,121.405579 
	C344.186188,122.158974 343.531982,122.903336 342.257965,123.966057 
	C336.461090,127.791946 330.664246,131.617828 324.150970,135.676529 
	C316.716705,138.946472 309.282410,142.216415 301.073730,145.650909 
	C296.045807,147.422485 291.017883,149.194046 285.201172,150.961700 
	C280.117126,152.583405 275.033112,154.205109 269.084106,155.944122 
	C257.382111,157.943420 245.680115,159.942719 233.067337,161.835739 
	C225.409714,162.372559 217.752106,162.909378 209.286255,163.275345 
	C207.130356,163.176193 204.925705,163.333359 202.826859,162.934189 
	C192.934677,161.052872 182.784317,159.899002 173.277435,156.796204 
	C163.460052,153.592041 160.304001,146.788406 161.912186,136.372360 
	C162.928497,133.578049 163.944794,130.783737 165.407623,127.478340 
M164.814072,181.071060 
	C164.719803,180.904907 164.625534,180.738754 164.531265,180.572601 
	C164.737488,180.693039 164.943695,180.813492 165.629242,181.558075 
	C165.703629,182.053986 165.639206,182.902496 165.872650,182.994400 
	C172.171707,185.474197 178.501297,187.876465 185.342361,190.865326 
	C187.822983,190.844269 189.468689,191.421356 188.754272,194.548492 
	C188.204880,196.953217 187.895142,199.448654 187.806915,201.915482 
	C187.608810,207.453949 190.946381,211.498016 196.196732,211.591949 
	C204.452713,211.739639 212.716049,211.476669 221.880859,211.654007 
	C227.914444,211.558075 233.948044,211.462143 240.882095,211.634918 
	C245.924820,211.540558 250.967529,211.446213 256.904358,211.628052 
	C262.595001,211.534988 268.285614,211.441925 274.876709,211.620972 
	C279.922302,211.528915 284.967896,211.436859 290.838531,211.619537 
	C296.907501,211.530136 302.976471,211.440750 309.752686,211.587860 
	C310.485382,211.509781 311.218079,211.431717 312.641968,211.543198 
	C313.111481,211.480652 313.580994,211.418121 314.910034,211.592285 
	C319.839233,211.637772 324.813629,212.095551 329.679291,211.561722 
	C332.266815,211.277832 334.665894,209.276337 337.749268,207.578079 
	C337.830627,203.385651 337.911987,199.193207 338.097351,194.122604 
	C337.647491,190.420197 337.197632,186.717773 336.838013,182.162796 
	C335.644379,171.882904 334.450714,161.603012 333.199860,150.830582 
	C329.206299,153.030487 326.012970,154.789581 322.103119,156.744446 
	C318.070465,158.590607 314.037781,160.436768 309.301331,162.354645 
	C305.818512,163.872330 302.335663,165.390015 298.105316,166.929657 
	C291.406616,169.194687 284.707886,171.459717 277.190094,173.779449 
	C270.794037,175.501450 264.397949,177.223450 257.178436,178.898453 
	C251.784637,179.973038 246.390839,181.047607 240.149704,182.054443 
	C230.438660,183.213089 220.727615,184.371735 210.169266,185.413239 
	C208.762131,185.511826 207.354980,185.610397 205.170654,185.465729 
	C200.121872,185.537109 195.073090,185.608490 189.223892,185.334274 
	C181.178131,183.859177 173.132370,182.384094 164.814072,181.071060 
M233.530380,60.889450 
	C230.878494,65.585091 228.226593,70.280739 225.084000,75.653526 
	C224.128494,80.988945 223.172974,86.324356 222.111633,92.250732 
	C219.786377,92.250732 217.329865,92.043671 214.922379,92.298920 
	C211.244125,92.688896 207.599716,93.398109 203.257095,94.151726 
	C198.390137,98.061638 199.153122,103.659279 198.429306,109.610306 
	C198.197449,112.047516 197.965576,114.484734 197.338211,117.594391 
	C197.197037,119.728210 197.055862,121.862030 196.619827,124.557335 
	C196.619614,124.975716 196.619400,125.394089 196.231644,126.510574 
	C195.605423,132.365051 194.979202,138.219513 194.097733,144.737549 
	C193.732529,147.950897 193.367340,151.164246 192.920853,155.092743 
	C203.060135,155.092743 212.548737,155.092743 222.946762,155.187744 
	C228.646042,154.489212 234.345337,153.790680 240.899124,153.188477 
	C245.982468,152.232834 251.065796,151.277206 256.977234,150.273300 
	C262.983795,148.827209 268.990356,147.381119 275.777222,145.960220 
	C281.533203,144.018875 287.289215,142.077515 293.795258,140.057739 
	C296.212891,139.080200 298.630493,138.102676 301.780884,137.032043 
	C304.186493,135.975403 306.592072,134.918762 309.704926,133.962585 
	C312.135956,132.613525 314.567017,131.264481 317.718201,130.037277 
	C320.593658,128.548218 323.645996,127.310181 326.268402,125.462059 
	C327.541656,124.564758 328.010040,122.525375 329.052490,120.366943 
	C328.985443,118.579048 328.918396,116.791145 328.924744,114.125618 
	C328.425781,109.542130 328.107697,104.929657 327.379059,100.382980 
	C326.586731,95.438843 323.178162,92.387306 318.257263,92.282585 
	C312.835022,92.167206 307.404144,92.457321 301.137360,92.332321 
	C298.250946,92.657417 296.951660,91.637733 297.008698,88.471161 
	C297.055847,85.853432 296.448669,83.186348 295.866577,80.600746 
	C290.745850,57.854248 273.865601,45.602486 252.289932,49.411701 
	C245.089691,51.304012 238.713898,54.543427 233.530380,60.889450 
M404.631744,251.280228 
	C405.122406,248.393524 405.613037,245.506805 406.193878,242.089371 
	C391.147675,242.089371 376.710297,242.045349 362.275391,242.213425 
	C361.517487,242.222260 360.780579,244.031525 359.752289,245.739990 
	C357.694672,258.096313 355.637054,270.452637 353.089386,283.439362 
	C352.365295,288.621857 351.641205,293.804321 350.642792,299.554779 
	C351.399292,299.972443 352.153656,300.750000 352.912567,300.754395 
	C366.775421,300.835022 380.639160,300.864868 394.501434,300.749207 
	C395.588409,300.740143 396.665833,299.578796 397.965363,298.140289 
	C398.416534,295.291473 398.867676,292.442627 399.423859,288.930603 
	C388.300323,288.930603 377.855896,288.930603 367.399292,288.930603 
	C367.693634,285.898315 367.931793,283.444977 368.561951,280.275970 
	C368.611664,277.648651 369.737671,276.684021 372.548309,276.759216 
	C380.644073,276.975800 388.749420,276.835693 397.029572,276.835693 
	C397.721802,272.992249 398.331482,269.607147 399.097687,265.353027 
	C389.604248,265.353027 380.589783,265.353027 370.103851,265.353027 
	C372.048309,260.604431 373.509583,257.035919 375.883698,253.709442 
	C380.028107,253.725784 384.175568,253.849350 388.316162,253.731400 
	C393.514893,253.583298 398.707977,253.237320 404.259918,252.509750 
	C404.254700,252.314011 404.249451,252.118256 404.631744,251.280228 
M455.866394,263.792206 
	C462.227631,256.803375 468.588837,249.814514 475.624603,242.084564 
	C470.760986,242.084564 467.270874,241.984985 463.790283,242.123947 
	C461.871002,242.200562 459.300720,241.993912 458.173462,243.093460 
	C453.470093,247.681213 449.202698,252.715927 444.125977,257.996826 
	C442.717499,259.759094 441.624695,259.721497 440.470032,257.629944 
	C438.140717,253.410568 435.782837,249.193680 433.151489,245.161957 
	C432.293121,243.846771 430.612274,242.366608 429.198212,242.246140 
	C424.784058,241.870132 420.317627,242.108185 414.968811,242.108185 
	C420.740662,252.060837 426.117767,261.332825 431.580261,270.752075 
	C429.619629,273.149445 427.745422,275.441132 425.270325,278.051239 
	C419.479553,284.307800 413.688812,290.564362 407.245331,297.103119 
	C406.554016,298.104675 405.862732,299.106262 404.999512,300.356903 
	C405.911804,300.581909 406.352448,300.782471 406.794342,300.785278 
	C411.073059,300.812500 415.357666,300.930450 419.627289,300.733307 
	C420.881012,300.675354 422.092224,299.696869 423.866486,298.782532 
	C428.632080,293.311310 433.397675,287.840088 438.518799,281.960693 
	C441.508820,287.377960 444.207886,292.454254 447.114929,297.408478 
	C447.874146,298.702271 449.218719,300.469513 450.400909,300.555542 
	C455.287048,300.911041 460.214050,300.704559 466.334381,300.704559 
	C460.244324,290.803925 454.741241,281.857574 449.148315,272.223846 
	C451.197235,269.514099 453.246155,266.804321 455.866394,263.792206 
M287.405853,267.583832 
	C285.601196,278.481842 283.796539,289.379852 281.918915,300.718506 
	C285.959564,300.718506 289.433075,300.569427 292.886871,300.766205 
	C295.596832,300.920624 296.656433,299.937347 297.069458,297.229462 
	C298.655090,286.833862 300.478638,276.474609 302.724579,266.495941 
	C309.467560,276.785126 316.149261,287.115540 323.022766,297.316772 
	C323.997772,298.763794 325.799408,300.307617 327.403107,300.541748 
	C330.786682,301.035736 334.292572,300.692078 338.059998,300.692078 
	C341.320923,281.089478 344.520874,261.853485 347.755066,242.411682 
	C342.527130,242.411682 337.953949,242.411682 333.188110,242.411682 
	C331.248047,253.749771 329.355377,264.811096 327.247620,277.129242 
	C325.479645,274.600342 324.432922,273.169525 323.454895,271.693237 
	C317.486664,262.684753 311.571350,253.640732 305.528320,244.682846 
	C304.786316,243.582993 303.447601,242.288269 302.284546,242.181351 
	C298.726685,241.854309 295.119598,242.062531 291.279968,242.062531 
	C290.064545,250.844345 288.949829,258.898407 287.405853,267.583832 
M152.463989,263.137299 
	C152.016739,264.562897 151.486954,265.968475 151.135162,267.417267 
	C148.034973,280.184753 152.168655,291.907135 161.763962,297.654816 
	C178.205444,307.503448 203.698181,300.093018 212.287766,282.968140 
	C220.449677,266.695862 215.099503,249.223724 200.163559,243.374084 
	C181.920746,236.229309 161.020187,244.631210 152.463989,263.137299 
M102.800255,262.697357 
	C103.867058,256.010834 104.933853,249.324341 106.026039,242.478729 
	C100.833405,242.478729 96.106438,242.478729 91.353745,242.478729 
	C88.263062,262.001465 85.229553,281.163025 82.168053,300.501434 
	C87.234825,300.501434 91.842125,300.501434 96.720535,300.501434 
	C97.994682,292.657562 99.235664,285.017883 100.438087,277.615570 
	C109.201759,277.615570 117.405289,277.615570 125.941742,277.615570 
	C124.688110,285.518066 123.509407,292.948273 122.312820,300.491150 
	C127.560539,300.491150 132.156143,300.491150 136.968079,300.491150 
	C140.085358,281.073883 143.167206,261.877289 146.301315,242.355225 
	C141.242569,242.355225 136.649689,242.355225 131.660233,242.355225 
	C131.038574,246.151794 130.455215,249.905167 129.802582,253.646454 
	C129.154419,257.361969 128.436569,261.065308 127.711082,264.980194 
	C119.837021,264.980194 112.354950,265.017181 104.874580,264.921143 
	C104.152229,264.911865 103.440475,264.077484 102.800255,262.697357 
M278.170929,265.516693 
	C280.568970,252.940567 275.434021,244.391495 262.819366,242.996353 
	C252.155945,241.816986 241.258514,242.753357 229.933746,242.753357 
	C226.756485,261.610870 223.506058,280.902588 220.209412,300.468597 
	C225.274857,300.468597 230.007889,300.468597 234.930328,300.468597 
	C235.607025,296.440552 236.587372,292.692047 236.775345,288.904205 
	C236.966766,285.046906 238.724716,284.313202 242.155457,284.446716 
	C246.466568,284.614471 250.844208,284.523163 255.116287,283.960358 
	C266.069305,282.517395 274.882874,278.040527 278.170929,265.516693 
M80.090866,246.648438 
	C69.619278,237.897461 46.078266,239.393234 37.212795,249.372879 
	C29.259041,258.326233 31.858133,270.143311 42.864552,274.588104 
	C45.779579,275.765289 48.899929,276.429901 51.915829,277.362793 
	C54.453911,278.147858 57.110420,278.706177 59.476967,279.854431 
	C63.394154,281.755035 63.668686,285.646729 60.051674,288.075256 
	C58.468170,289.138428 56.417133,289.766449 54.501396,290.028015 
	C46.619263,291.104187 39.513607,288.841583 32.888664,284.067535 
	C30.707878,288.103424 28.701717,291.816132 26.549831,295.798523 
	C37.744049,301.925079 48.986755,303.856506 60.696377,300.222992 
	C64.835793,298.938538 69.169991,296.762054 72.219566,293.772949 
	C81.011757,285.155060 78.324898,273.190155 66.978241,268.624725 
	C64.216606,267.513550 61.262756,266.882843 58.403557,266.010651 
	C56.021938,265.284149 53.449196,264.876770 51.340122,263.667175 
	C49.814083,262.791962 47.913559,260.788513 47.978725,259.370911 
	C48.060165,257.599243 49.739647,255.648026 51.203182,254.282181 
	C52.173721,253.376419 54.022427,252.890106 55.396973,253.027390 
	C62.025806,253.689514 68.627136,254.627014 75.958900,255.558395 
	C76.894012,253.634659 78.411354,250.513153 80.090866,246.648438 
M342.037903,83.606300 
	C344.559387,82.151169 347.080902,80.696037 349.533112,79.280884 
	C343.710663,77.998093 340.303741,73.980270 338.530365,67.675659 
	C337.282104,74.838707 332.780945,78.138016 326.252167,79.434044 
	C333.644501,80.323921 337.883148,84.007263 338.161499,91.440445 
	C339.371063,88.877823 340.473907,86.541351 342.037903,83.606300 
M354.251190,88.701851 
	C353.618164,88.940628 352.985138,89.179413 352.184082,89.481583 
	C354.814240,91.514503 357.063354,93.252914 358.919434,94.687515 
	C361.193573,93.026245 363.210266,91.553047 365.110657,90.164803 
	C363.292847,88.478340 361.086426,86.431358 359.132019,84.618172 
	C357.770874,85.819771 356.323303,87.097687 354.251190,88.701851 
z"/>
<path fill="#3C3B3B" opacity="1.000000" stroke="none" 
	d="
M152.618774,262.780945 
	C161.020187,244.631210 181.920746,236.229309 200.163559,243.374084 
	C215.099503,249.223724 220.449677,266.695862 212.287766,282.968140 
	C203.698181,300.093018 178.205444,307.503448 161.763962,297.654816 
	C152.168655,291.907135 148.034973,280.184753 151.135162,267.417267 
	C151.486954,265.968475 152.016739,264.562897 152.618774,262.780945 
M201.184662,269.417419 
	C200.833160,260.144989 197.514709,255.552505 189.589813,253.785355 
	C181.897430,252.070099 175.374069,254.600433 170.319397,260.327667 
	C165.137482,266.199127 163.444626,273.170959 166.039658,280.764709 
	C167.543442,285.165222 170.862640,287.821381 175.324097,289.030853 
	C187.826233,292.420013 199.114014,284.190125 201.184662,269.417419 
z"/>
<path fill="#3C3B3B" opacity="1.000000" stroke="none" 
	d="
M102.762024,263.161743 
	C103.440475,264.077484 104.152229,264.911865 104.874580,264.921143 
	C112.354950,265.017181 119.837021,264.980194 127.711082,264.980194 
	C128.436569,261.065308 129.154419,257.361969 129.802582,253.646454 
	C130.455215,249.905167 131.038574,246.151794 131.660233,242.355225 
	C136.649689,242.355225 141.242569,242.355225 146.301315,242.355225 
	C143.167206,261.877289 140.085358,281.073883 136.968079,300.491150 
	C132.156143,300.491150 127.560539,300.491150 122.312820,300.491150 
	C123.509407,292.948273 124.688110,285.518066 125.941742,277.615570 
	C117.405289,277.615570 109.201759,277.615570 100.438087,277.615570 
	C99.235664,285.017883 97.994682,292.657562 96.720535,300.501434 
	C91.842125,300.501434 87.234825,300.501434 82.168053,300.501434 
	C85.229553,281.163025 88.263062,262.001465 91.353745,242.478729 
	C96.106438,242.478729 100.833405,242.478729 106.026039,242.478729 
	C104.933853,249.324341 103.867058,256.010834 102.762024,263.161743 
z"/>
<path fill="#3C3C3C" opacity="1.000000" stroke="none" 
	d="
M278.092285,265.919739 
	C274.882874,278.040527 266.069305,282.517395 255.116287,283.960358 
	C250.844208,284.523163 246.466568,284.614471 242.155457,284.446716 
	C238.724716,284.313202 236.966766,285.046906 236.775345,288.904205 
	C236.587372,292.692047 235.607025,296.440552 234.930328,300.468597 
	C230.007889,300.468597 225.274857,300.468597 220.209412,300.468597 
	C223.506058,280.902588 226.756485,261.610870 229.933746,242.753357 
	C241.258514,242.753357 252.155945,241.816986 262.819366,242.996353 
	C275.434021,244.391495 280.568970,252.940567 278.092285,265.919739 
M264.079407,260.709198 
	C263.650024,256.556671 260.951691,254.419495 257.182281,254.122650 
	C252.450882,253.750031 247.667877,254.032944 242.559830,254.032944 
	C241.612137,260.304657 240.695251,266.372650 239.716675,272.848846 
	C243.956970,272.848846 247.429138,272.999451 250.883987,272.818878 
	C259.187317,272.384857 262.831360,269.192719 264.079407,260.709198 
z"/>
<path fill="#3C3B3B" opacity="1.000000" stroke="none" 
	d="
M80.009781,247.020050 
	C78.411354,250.513153 76.894012,253.634659 75.958900,255.558395 
	C68.627136,254.627014 62.025806,253.689514 55.396973,253.027390 
	C54.022427,252.890106 52.173721,253.376419 51.203182,254.282181 
	C49.739647,255.648026 48.060165,257.599243 47.978725,259.370911 
	C47.913559,260.788513 49.814083,262.791962 51.340122,263.667175 
	C53.449196,264.876770 56.021938,265.284149 58.403557,266.010651 
	C61.262756,266.882843 64.216606,267.513550 66.978241,268.624725 
	C78.324898,273.190155 81.011757,285.155060 72.219566,293.772949 
	C69.169991,296.762054 64.835793,298.938538 60.696377,300.222992 
	C48.986755,303.856506 37.744049,301.925079 26.549831,295.798523 
	C28.701717,291.816132 30.707878,288.103424 32.888664,284.067535 
	C39.513607,288.841583 46.619263,291.104187 54.501396,290.028015 
	C56.417133,289.766449 58.468170,289.138428 60.051674,288.075256 
	C63.668686,285.646729 63.394154,281.755035 59.476967,279.854431 
	C57.110420,278.706177 54.453911,278.147858 51.915829,277.362793 
	C48.899929,276.429901 45.779579,275.765289 42.864552,274.588104 
	C31.858133,270.143311 29.259041,258.326233 37.212795,249.372879 
	C46.078266,239.393234 69.619278,237.897461 80.009781,247.020050 
z"/>
<path fill="#136AC2" opacity="1.000000" stroke="none" 
	d="
M287.835144,266.952454 
	C288.949829,258.898407 290.064545,250.844345 291.279968,242.062531 
	C295.119598,242.062531 298.726685,241.854309 302.284546,242.181351 
	C303.447601,242.288269 304.786316,243.582993 305.528320,244.682846 
	C311.571350,253.640732 317.486664,262.684753 323.454895,271.693237 
	C324.432922,273.169525 325.479645,274.600342 327.247620,277.129242 
	C329.355377,264.811096 331.248047,253.749771 333.188110,242.411682 
	C337.953949,242.411682 342.527130,242.411682 347.755066,242.411682 
	C344.520874,261.853485 341.320923,281.089478 338.059998,300.692078 
	C334.292572,300.692078 330.786682,301.035736 327.403107,300.541748 
	C325.799408,300.307617 323.997772,298.763794 323.022766,297.316772 
	C316.149261,287.115540 309.467560,276.785126 302.163818,266.104675 
	C301.406586,265.454987 301.174316,265.216309 301.018982,264.935150 
	C297.341370,258.279083 296.822510,258.304718 292.368256,264.167023 
	C291.367950,265.483582 289.372467,266.043945 287.835144,266.952454 
z"/>
<path fill="#115DBA" opacity="1.000000" stroke="none" 
	d="
M216.173752,175.506744 
	C199.211777,177.392624 182.346268,177.459137 165.746201,172.761505 
	C164.310135,172.355118 162.913162,171.783310 161.536880,171.197159 
	C145.307281,164.285080 141.559708,152.784851 151.241028,137.261169 
	C155.151703,136.970108 158.369705,136.944244 161.587708,136.918365 
	C160.304001,146.788406 163.460052,153.592041 173.277435,156.796204 
	C182.784317,159.899002 192.934677,161.052872 202.826859,162.934189 
	C204.925705,163.333359 207.130356,163.176193 209.664307,163.783386 
	C210.523453,165.253174 210.858353,166.929977 211.508865,167.062988 
	C216.512619,168.085938 216.083450,171.901382 216.173752,175.506744 
z"/>
<path fill="#136DC5" opacity="1.000000" stroke="none" 
	d="
M353.579437,282.808960 
	C355.637054,270.452637 357.694672,258.096313 360.294983,245.359863 
	C367.439880,243.372498 373.854187,247.224594 374.970825,253.467392 
	C373.509583,257.035919 372.048309,260.604431 370.103851,265.353027 
	C380.589783,265.353027 389.604248,265.353027 399.097687,265.353027 
	C398.331482,269.607147 397.721802,272.992249 397.029572,276.835693 
	C388.749420,276.835693 380.644073,276.975800 372.548309,276.759216 
	C369.737671,276.684021 368.611664,277.648651 367.982880,280.638245 
	C365.610931,282.309082 363.452667,283.323547 362.108521,284.993347 
	C359.946686,287.679016 358.091522,287.511902 355.913666,285.330994 
	C355.104828,284.521027 354.355774,283.651398 353.579437,282.808960 
z"/>
<path fill="#06B8F3" opacity="1.000000" stroke="none" 
	d="
M253.014938,49.433338 
	C273.865601,45.602486 290.745850,57.854248 295.866577,80.600746 
	C296.448669,83.186348 297.055847,85.853432 297.008698,88.471161 
	C296.951660,91.637733 298.250946,92.657417 301.575989,92.785858 
	C303.798737,100.521446 310.158112,104.184547 314.779053,109.184738 
	C318.485077,113.194855 323.168030,115.466606 328.851318,115.003250 
	C328.918396,116.791145 328.985443,118.579048 328.544983,120.683693 
	C325.197815,120.256668 321.936523,120.158981 319.604675,118.637085 
	C314.460144,115.279457 309.802826,111.179558 304.907013,107.434395 
	C303.092407,106.046249 300.905273,105.056351 299.344055,103.443443 
	C295.715088,99.694244 292.363495,95.676559 288.847321,91.367432 
	C288.525391,88.656639 288.367737,86.326500 287.967957,84.038689 
	C284.896759,66.463127 273.816559,56.846989 256.892578,56.815018 
	C255.507126,54.144978 254.261032,51.789158 253.014938,49.433338 
z"/>
<path fill="#147DCF" opacity="1.000000" stroke="none" 
	d="
M407.898071,296.820953 
	C413.688812,290.564362 419.479553,284.307800 425.780457,278.216064 
	C430.699768,280.849854 434.950623,281.611237 439.499817,278.330383 
	C442.492279,276.172241 445.975006,274.693939 449.238190,272.911224 
	C454.741241,281.857574 460.244324,290.803925 466.334381,300.704559 
	C460.214050,300.704559 455.287048,300.911041 450.400909,300.555542 
	C449.218719,300.469513 447.874146,298.702271 447.114929,297.408478 
	C444.207886,292.454254 441.508820,287.377960 438.518799,281.960693 
	C433.397675,287.840088 428.632080,293.311310 423.108826,298.936127 
	C419.534363,299.072845 416.680115,299.329071 413.913177,298.949188 
	C411.849640,298.665863 409.898987,297.560333 407.898071,296.820953 
z"/>
<path fill="#0A92DE" opacity="1.000000" stroke="none" 
	d="
M203.940948,93.971794 
	C207.599716,93.398109 211.244125,92.688896 214.922379,92.298920 
	C217.329865,92.043671 219.786377,92.250732 222.111633,92.250732 
	C223.172974,86.324356 224.128494,80.988945 225.483749,75.730118 
	C228.258896,76.872681 230.634293,77.938652 232.884247,79.406380 
	C232.487778,84.000076 232.216766,88.192024 231.964966,92.745438 
	C232.831497,95.036171 233.245911,97.367752 234.600616,98.825554 
	C240.693954,105.382675 246.573761,112.256134 255.034729,116.045135 
	C256.382019,116.648483 257.820099,117.356651 258.809509,118.401474 
	C264.937622,124.872795 270.949524,131.454208 276.752808,138.274017 
	C274.110779,138.644089 270.979218,139.761978 269.447540,138.658707 
	C262.506012,133.658691 254.311188,129.154526 249.817612,122.331406 
	C244.793137,114.702118 238.364990,110.978058 230.775635,107.516571 
	C229.923019,101.894051 228.329636,101.043442 223.215393,103.194931 
	C216.528931,100.065742 210.234940,97.018768 203.940948,93.971794 
z"/>
<path fill="#1588D6" opacity="1.000000" stroke="none" 
	d="
M311.950806,211.353668 
	C311.218079,211.431717 310.485382,211.509781 309.366302,211.091492 
	C304.001373,205.242691 298.453217,200.298492 294.229645,194.405014 
	C291.014343,189.918472 289.480896,184.226624 287.199188,179.071014 
	C290.645477,177.450134 294.091705,175.829102 297.538330,174.209000 
	C297.687805,174.138748 297.841156,174.076797 298.030396,174.357697 
	C298.372986,175.281845 298.567352,175.963745 298.999420,176.421082 
	C305.906494,183.731995 313.155060,190.748932 319.670776,198.391327 
	C324.430084,203.973663 329.732208,207.699585 337.150055,208.050140 
	C334.665894,209.276337 332.266815,211.277832 329.679291,211.561722 
	C324.813629,212.095551 319.839233,211.637772 314.440399,211.130295 
	C313.607330,210.286697 313.243896,209.905090 312.880493,209.523468 
	C312.570587,210.133545 312.260681,210.743607 311.950806,211.353668 
z"/>
<path fill="#1082D3" opacity="1.000000" stroke="none" 
	d="
M449.193237,272.567535 
	C445.975006,274.693939 442.492279,276.172241 439.499817,278.330383 
	C434.950623,281.611237 430.699768,280.849854 426.080902,278.056854 
	C427.745422,275.441132 429.619629,273.149445 431.580261,270.752075 
	C426.117767,261.332825 420.740662,252.060837 414.968811,242.108185 
	C420.317627,242.108185 424.784058,241.870132 429.198212,242.246140 
	C430.612274,242.366608 432.293121,243.846771 433.151489,245.161957 
	C435.782837,249.193680 438.140717,253.410568 440.470032,257.629944 
	C441.624695,259.721497 442.717499,259.759094 444.643677,258.115875 
	C448.539307,260.188141 451.917175,262.141327 455.295074,264.094543 
	C453.246155,266.804321 451.197235,269.514099 449.193237,272.567535 
z"/>
<path fill="#0985D6" opacity="1.000000" stroke="none" 
	d="
M203.599030,94.061760 
	C210.234940,97.018768 216.528931,100.065742 222.957123,103.472000 
	C219.840988,108.769920 224.735764,108.560654 227.000061,110.395805 
	C228.634796,113.287491 229.900894,116.163643 231.968628,118.242470 
	C239.444427,125.758430 247.208023,132.987579 254.800140,140.389465 
	C255.439957,141.013245 255.611908,142.116928 255.680634,143.137878 
	C254.238510,143.520172 253.116974,143.762222 251.621552,144.004486 
	C250.500046,144.005814 249.752396,144.006897 248.687500,143.866669 
	C244.184921,140.565079 239.875534,137.553558 235.852493,134.198685 
	C232.466263,131.374878 229.434692,128.128555 226.205048,125.113281 
	C223.926437,122.985931 221.452621,121.054810 219.287506,118.821312 
	C214.025253,113.392830 209.367249,106.883354 200.181473,109.492653 
	C199.812897,109.597359 199.282059,109.130768 198.826813,108.930367 
	C199.153122,103.659279 198.390137,98.061638 203.599030,94.061760 
z"/>
<path fill="#0698E0" opacity="1.000000" stroke="none" 
	d="
M277.000000,137.999054 
	C270.949524,131.454208 264.937622,124.872795 258.809509,118.401474 
	C257.820099,117.356651 256.382019,116.648483 255.034729,116.045135 
	C246.573761,112.256134 240.693954,105.382675 234.600616,98.825554 
	C233.245911,97.367752 232.831497,95.036171 232.411499,92.696777 
	C235.225540,92.363037 237.612213,92.439430 239.999634,92.868439 
	C241.266220,94.967995 242.168030,97.272705 243.855301,98.373924 
	C257.763611,107.451378 271.981232,115.998344 283.858521,127.938622 
	C286.691559,130.786667 291.884277,131.192581 295.821075,133.077942 
	C297.763916,134.008377 299.318085,135.750381 301.048126,137.125153 
	C298.630493,138.102676 296.212891,139.080200 293.370300,139.720642 
	C290.990265,135.440674 287.647705,135.683777 284.125610,136.455368 
	C281.751617,136.975433 279.375275,137.484848 277.000000,137.999054 
z"/>
<path fill="#077ACF" opacity="1.000000" stroke="none" 
	d="
M297.992706,174.010986 
	C297.841156,174.076797 297.687805,174.138748 297.538330,174.209000 
	C294.091705,175.829102 290.645477,177.450134 287.199188,179.071014 
	C289.480896,184.226624 291.014343,189.918472 294.229645,194.405014 
	C298.453217,200.298492 304.001373,205.242691 309.012695,210.973236 
	C302.976471,211.440750 296.907501,211.530136 290.407898,211.161987 
	C285.195679,204.183136 280.282471,197.752533 275.695190,191.097290 
	C273.776611,188.313812 272.550018,185.053391 271.385498,181.965515 
	C276.432526,181.161514 279.010529,178.807129 278.009186,173.724731 
	C284.707886,171.459717 291.406616,169.194687 298.782684,167.174942 
	C299.644897,169.277664 299.829773,171.135117 299.843933,173.238770 
	C299.113037,173.660324 298.552887,173.835648 297.992706,174.010986 
z"/>
<path fill="#05A1E5" opacity="1.000000" stroke="none" 
	d="
M301.414490,137.078598 
	C299.318085,135.750381 297.763916,134.008377 295.821075,133.077942 
	C291.884277,131.192581 286.691559,130.786667 283.858521,127.938622 
	C271.981232,115.998344 257.763611,107.451378 243.855301,98.373924 
	C242.168030,97.272705 241.266220,94.967995 240.452057,92.775948 
	C244.602188,92.392693 248.300629,92.454536 252.014648,92.861160 
	C252.472992,93.850006 252.828888,94.966324 253.371765,95.066193 
	C259.945984,96.275635 264.208160,101.160889 269.283264,104.784302 
	C278.981415,111.708412 288.843903,118.402718 298.526978,125.347389 
	C302.175903,127.964371 305.516510,131.011230 308.997681,133.862122 
	C306.592072,134.918762 304.186493,135.975403 301.414490,137.078598 
z"/>
<path fill="#04AAEA" opacity="1.000000" stroke="none" 
	d="
M309.351318,133.912354 
	C305.516510,131.011230 302.175903,127.964371 298.526978,125.347389 
	C288.843903,118.402718 278.981415,111.708412 269.283264,104.784302 
	C264.208160,101.160889 259.945984,96.275635 253.371765,95.066193 
	C252.828888,94.966324 252.472992,93.850006 252.474457,92.768784 
	C259.279236,92.389687 265.639801,92.447754 272.009003,92.844116 
	C272.966888,94.434082 273.663055,96.100922 274.911377,96.862053 
	C279.195923,99.474365 283.673950,101.769356 288.067444,104.544189 
	C288.652435,108.591080 291.212463,109.655273 294.881592,109.816895 
	C300.131958,114.393837 305.050659,118.845894 309.872437,123.400528 
	C312.213593,125.611961 316.919891,125.244591 316.998047,129.915421 
	C314.567017,131.264481 312.135956,132.613525 309.351318,133.912354 
z"/>
<path fill="#0C45A7" opacity="1.000000" stroke="none" 
	d="
M190.024307,185.679886 
	C195.073090,185.608490 200.121872,185.537109 205.580185,185.924713 
	C206.449722,187.568634 206.695938,188.903458 207.404541,189.914093 
	C211.885696,196.305222 216.469269,202.624542 221.014435,209.270142 
	C220.998627,210.177689 220.987442,210.782623 220.976257,211.387573 
	C212.716049,211.476669 204.452713,211.739639 196.196732,211.591949 
	C190.946381,211.498016 187.608810,207.453949 187.806915,201.915482 
	C187.895142,199.448654 188.204880,196.953217 188.754272,194.548492 
	C189.468689,191.421356 187.822983,190.844269 185.229935,190.259949 
	C186.753113,188.329681 188.388702,187.004791 190.024307,185.679886 
z"/>
<path fill="#088DD9" opacity="1.000000" stroke="none" 
	d="
M276.752808,138.274017 
	C279.375275,137.484848 281.751617,136.975433 284.125610,136.455368 
	C287.647705,135.683777 290.990265,135.440674 292.995239,139.759842 
	C287.289215,142.077515 281.533203,144.018875 275.345520,145.593536 
	C273.092621,141.534637 270.146454,140.561081 266.242340,141.368515 
	C262.860962,142.067856 259.417328,142.466248 256.001221,142.997650 
	C255.611908,142.116928 255.439957,141.013245 254.800140,140.389465 
	C247.208023,132.987579 239.444427,125.758430 231.968628,118.242470 
	C229.900894,116.163643 228.634796,113.287491 227.284698,110.277435 
	C228.613174,109.148651 229.657837,108.519608 230.702484,107.890564 
	C238.364990,110.978058 244.793137,114.702118 249.817612,122.331406 
	C254.311188,129.154526 262.506012,133.658691 269.447540,138.658707 
	C270.979218,139.761978 274.110779,138.644089 276.752808,138.274017 
z"/>
<path fill="#0866C2" opacity="1.000000" stroke="none" 
	d="
M277.599640,173.752106 
	C279.010529,178.807129 276.432526,181.161514 271.008728,182.003479 
	C266.860626,183.245651 263.466034,184.405594 258.933502,185.954346 
	C262.570679,191.923981 265.840118,197.211899 269.025696,202.549866 
	C270.749756,205.438766 272.330750,208.413086 273.976257,211.348862 
	C268.285614,211.441925 262.595001,211.534988 256.439148,211.165314 
	C253.788498,207.438370 251.355392,204.309357 249.481094,200.875336 
	C247.202988,196.701431 244.669846,192.453903 245.390152,187.363190 
	C257.465546,185.973694 257.861328,185.698853 258.001892,178.945465 
	C264.397949,177.223450 270.794037,175.501450 277.599640,173.752106 
z"/>
<path fill="#088FDC" opacity="1.000000" stroke="none" 
	d="
M298.030396,174.357697 
	C298.552887,173.835648 299.113037,173.660324 300.217041,173.234924 
	C303.841827,171.655060 306.922729,170.325272 310.003235,169.380951 
	C312.114410,172.900528 313.817139,176.440323 316.431549,179.075699 
	C320.570251,183.247589 325.188629,186.984619 329.864136,190.566086 
	C332.285461,192.420837 335.265656,193.545990 337.993347,195.000763 
	C337.911987,199.193207 337.830627,203.385651 337.449646,207.814117 
	C329.732208,207.699585 324.430084,203.973663 319.670776,198.391327 
	C313.155060,190.748932 305.906494,183.731995 298.999420,176.421082 
	C298.567352,175.963745 298.372986,175.281845 298.030396,174.357697 
z"/>
<path fill="#1366BE" opacity="1.000000" stroke="none" 
	d="
M287.620483,267.268127 
	C289.372467,266.043945 291.367950,265.483582 292.368256,264.167023 
	C296.822510,258.304718 297.341370,258.279083 301.018982,264.935150 
	C301.174316,265.216309 301.406586,265.454987 301.908203,265.907593 
	C300.478638,276.474609 298.655090,286.833862 297.069458,297.229462 
	C296.656433,299.937347 295.596832,300.920624 292.886871,300.766205 
	C289.433075,300.569427 285.959564,300.718506 281.918915,300.718506 
	C283.796539,289.379852 285.601196,278.481842 287.620483,267.268127 
z"/>
<path fill="#0B51B1" opacity="1.000000" stroke="none" 
	d="
M221.428558,211.520782 
	C220.987442,210.782623 220.998627,210.177689 221.256561,209.069977 
	C218.150955,203.032486 215.127441,197.255646 211.306427,192.065964 
	C209.416855,189.499573 208.390411,187.859573 211.016571,185.530380 
	C220.727615,184.371735 230.438660,183.213089 240.617691,182.441986 
	C241.641388,184.327621 242.197098,185.825714 242.803711,187.461075 
	C239.708847,188.163193 236.975098,188.717484 234.276474,189.408890 
	C227.980515,191.022034 227.617508,192.659851 231.564194,198.156387 
	C234.604828,202.391052 237.192535,206.950943 239.981628,211.366211 
	C233.948044,211.462143 227.914444,211.558075 221.428558,211.520782 
z"/>
<path fill="#0C65C0" opacity="1.000000" stroke="none" 
	d="
M353.334412,283.124146 
	C354.355774,283.651398 355.104828,284.521027 355.913666,285.330994 
	C358.091522,287.511902 359.946686,287.679016 362.108521,284.993347 
	C363.452667,283.323547 365.610931,282.309082 367.786865,280.996063 
	C367.931793,283.444977 367.693634,285.898315 367.399292,288.930603 
	C377.855896,288.930603 388.300323,288.930603 399.423859,288.930603 
	C398.867676,292.442627 398.416534,295.291473 397.405457,298.575348 
	C381.536072,299.002533 366.226593,298.994690 350.917114,298.986816 
	C351.641205,293.804321 352.365295,288.621857 353.334412,283.124146 
z"/>
<path fill="#0A7DD0" opacity="1.000000" stroke="none" 
	d="
M198.628052,109.270340 
	C199.282059,109.130768 199.812897,109.597359 200.181473,109.492653 
	C209.367249,106.883354 214.025253,113.392830 219.287506,118.821312 
	C221.452621,121.054810 223.926437,122.985931 226.205048,125.113281 
	C229.434692,128.128555 232.466263,131.374878 235.852493,134.198685 
	C239.875534,137.553558 244.184921,140.565079 248.406433,144.154404 
	C243.964691,145.052368 239.486725,145.521317 234.968689,145.645844 
	C230.373795,141.573868 225.812851,137.853729 221.266800,134.115463 
	C219.127625,132.356430 216.780609,130.776627 214.939529,128.742844 
	C210.117462,123.416077 205.541473,117.855980 197.733719,116.921944 
	C197.965576,114.484734 198.197449,112.047516 198.628052,109.270340 
z"/>
<path fill="#03B2EF" opacity="1.000000" stroke="none" 
	d="
M317.358124,129.976349 
	C316.919891,125.244591 312.213593,125.611961 309.872437,123.400528 
	C305.050659,118.845894 300.131958,114.393837 295.125793,109.540154 
	C295.595306,107.642593 296.880951,105.945801 296.574585,104.615677 
	C296.322388,103.520844 294.182617,102.182022 292.878784,102.181404 
	C291.278931,102.180649 289.678436,103.459579 288.078217,104.185303 
	C283.673950,101.769356 279.195923,99.474365 274.911377,96.862053 
	C273.663055,96.100922 272.966888,94.434082 272.466736,92.744766 
	C278.243683,92.127319 283.571594,91.947502 288.899475,91.767685 
	C292.363495,95.676559 295.715088,99.694244 299.344055,103.443443 
	C300.905273,105.056351 303.092407,106.046249 304.907013,107.434395 
	C309.802826,111.179558 314.460144,115.279457 319.604675,118.637085 
	C321.936523,120.158981 325.197815,120.256668 328.440125,121.001732 
	C328.010040,122.525375 327.541656,124.564758 326.268402,125.462059 
	C323.645996,127.310181 320.593658,128.548218 317.358124,129.976349 
z"/>
<path fill="#085AB9" opacity="1.000000" stroke="none" 
	d="
M240.431854,211.500580 
	C237.192535,206.950943 234.604828,202.391052 231.564194,198.156387 
	C227.617508,192.659851 227.980515,191.022034 234.276474,189.408890 
	C236.975098,188.717484 239.708847,188.163193 242.803711,187.461075 
	C242.197098,185.825714 241.641388,184.327621 241.041351,182.475845 
	C246.390839,181.047607 251.784637,179.973038 257.590149,178.921967 
	C257.861328,185.698853 257.465546,185.973694 245.390152,187.363190 
	C244.669846,192.453903 247.202988,196.701431 249.481094,200.875336 
	C251.355392,204.309357 253.788498,207.438370 255.992096,211.027222 
	C250.967529,211.446213 245.924820,211.540558 240.431854,211.500580 
z"/>
<path fill="#1876C9" opacity="1.000000" stroke="none" 
	d="
M375.427246,253.588409 
	C373.854187,247.224594 367.439880,243.372498 360.435760,244.991180 
	C360.780579,244.031525 361.517487,242.222260 362.275391,242.213425 
	C376.710297,242.045349 391.147675,242.089371 406.193878,242.089371 
	C405.613037,245.506805 405.122406,248.393524 404.243408,251.673935 
	C403.747162,252.149033 403.534943,252.271515 403.548218,252.305206 
	C403.640442,252.539368 403.779480,252.755112 403.903503,252.976746 
	C398.707977,253.237320 393.514893,253.583298 388.316162,253.731400 
	C384.175568,253.849350 380.028107,253.725784 375.427246,253.588409 
z"/>
<path fill="#0770C9" opacity="1.000000" stroke="none" 
	d="
M274.426483,211.484924 
	C272.330750,208.413086 270.749756,205.438766 269.025696,202.549866 
	C265.840118,197.211899 262.570679,191.923981 258.933502,185.954346 
	C263.466034,184.405594 266.860626,183.245651 270.632019,182.047760 
	C272.550018,185.053391 273.776611,188.313812 275.695190,191.097290 
	C280.282471,197.752533 285.195679,204.183136 289.995392,211.024628 
	C284.967896,211.436859 279.922302,211.528915 274.426483,211.484924 
z"/>
<path fill="#09BEF5" opacity="1.000000" stroke="none" 
	d="
M328.888031,114.564438 
	C323.168030,115.466606 318.485077,113.194855 314.779053,109.184738 
	C310.158112,104.184547 303.798737,100.521446 301.995819,92.905090 
	C307.404144,92.457321 312.835022,92.167206 318.257263,92.282585 
	C323.178162,92.387306 326.586731,95.438843 327.379059,100.382980 
	C328.107697,104.929657 328.425781,109.542130 328.888031,114.564438 
z"/>
<path fill="#089BE3" opacity="1.000000" stroke="none" 
	d="
M338.045349,194.561676 
	C335.265656,193.545990 332.285461,192.420837 329.864136,190.566086 
	C325.188629,186.984619 320.570251,183.247589 316.431549,179.075699 
	C313.817139,176.440323 312.114410,172.900528 310.294250,169.234207 
	C310.392212,166.562317 310.198669,164.422607 310.005127,162.282913 
	C314.037781,160.436768 318.070465,158.590607 322.604858,157.009842 
	C328.919281,165.117935 318.044281,162.999542 317.178955,167.395477 
	C322.303650,174.117279 329.528534,178.562912 336.747772,183.015366 
	C337.197632,186.717773 337.647491,190.420197 338.045349,194.561676 
z"/>
<path fill="#0D6FC7" opacity="1.000000" stroke="none" 
	d="
M274.001770,164.000732 
	C262.954010,166.699570 251.906219,169.398392 240.244843,171.783264 
	C237.309769,168.552887 233.408966,166.573608 233.978119,161.942017 
	C245.680115,159.942719 257.382111,157.943420 269.531799,156.294113 
	C269.259888,160.222824 271.530853,162.166428 274.001770,164.000732 
z"/>
<path fill="#0C65C0" opacity="1.000000" stroke="none" 
	d="
M240.044617,153.092133 
	C234.345337,153.790680 228.646042,154.489212 222.271484,154.857880 
	C219.896194,153.602386 218.162201,152.733582 216.502060,151.741211 
	C209.648254,147.644302 202.786438,143.597595 194.352982,144.073990 
	C194.979202,138.219513 195.605423,132.365051 196.737762,126.352036 
	C200.747208,130.715927 203.719788,135.832062 207.914154,139.581421 
	C211.567932,142.847534 216.624039,146.580917 221.018631,146.529510 
	C228.580887,146.441040 234.030716,150.038559 240.044617,153.092133 
z"/>
<path fill="#09A6E9" opacity="1.000000" stroke="none" 
	d="
M336.792908,182.589081 
	C329.528534,178.562912 322.303650,174.117279 317.178955,167.395477 
	C318.044281,162.999542 328.919281,165.117935 322.963135,156.911957 
	C326.012970,154.789581 329.206299,153.030487 333.199860,150.830582 
	C334.450714,161.603012 335.644379,171.882904 336.792908,182.589081 
z"/>
<path fill="#1588D6" opacity="1.000000" stroke="none" 
	d="
M455.580750,263.943359 
	C451.917175,262.141327 448.539307,260.188141 444.968445,257.910828 
	C449.202698,252.715927 453.470093,247.681213 458.173462,243.093460 
	C459.300720,241.993912 461.871002,242.200562 463.790283,242.123947 
	C467.270874,241.984985 470.760986,242.084564 475.624603,242.084564 
	C468.588837,249.814514 462.227631,256.803375 455.580750,263.943359 
z"/>
<path fill="#0770C9" opacity="1.000000" stroke="none" 
	d="
M240.471863,153.140320 
	C234.030716,150.038559 228.580887,146.441040 221.018631,146.529510 
	C216.624039,146.580917 211.567932,142.847534 207.914154,139.581421 
	C203.719788,135.832062 200.747208,130.715927 196.931549,126.002991 
	C196.619400,125.394089 196.619614,124.975716 197.126389,124.308662 
	C203.887024,129.005585 210.156677,133.931625 216.390457,138.902679 
	C221.848999,143.255508 228.094421,145.488312 235.008759,145.990265 
	C239.486725,145.521317 243.964691,145.052368 248.723709,144.295685 
	C249.752396,144.006897 250.500046,144.005814 251.674911,144.342865 
	C253.451141,146.561203 254.800140,148.441391 256.149139,150.321564 
	C251.065796,151.277206 245.982468,152.232834 240.471863,153.140320 
z"/>
<path fill="#0BB4F0" opacity="1.000000" stroke="none" 
	d="
M342.882629,123.651894 
	C343.531982,122.903336 344.186188,122.158974 344.829803,121.405579 
	C352.590637,112.321564 352.306976,107.754433 343.520264,100.282593 
	C349.771973,99.715492 356.849792,103.166382 359.409729,108.188911 
	C362.442932,114.140038 359.472015,118.949440 355.795044,123.132507 
	C352.861603,126.469719 349.132050,129.107162 345.364319,131.751984 
	C344.276062,128.849792 343.579346,126.250847 342.882629,123.651894 
z"/>
<path fill="#0C72CA" opacity="1.000000" stroke="none" 
	d="
M234.968689,145.645844 
	C228.094421,145.488312 221.848999,143.255508 216.390457,138.902679 
	C210.156677,133.931625 203.887024,129.005585 197.273819,124.027924 
	C197.055862,121.862030 197.197037,119.728210 197.535965,117.258163 
	C205.541473,117.855980 210.117462,123.416077 214.939529,128.742844 
	C216.780609,130.776627 219.127625,132.356430 221.266800,134.115463 
	C225.812851,137.853729 230.373795,141.573868 234.968689,145.645844 
z"/>
<path fill="#1366BE" opacity="1.000000" stroke="none" 
	d="
M233.522736,161.888885 
	C233.408966,166.573608 237.309769,168.552887 239.819855,171.746124 
	C232.364044,173.170624 224.719620,174.318314 216.624481,175.486359 
	C216.083450,171.901382 216.512619,168.085938 211.508865,167.062988 
	C210.858353,166.929977 210.523453,165.253174 210.068420,163.868820 
	C217.752106,162.909378 225.409714,162.372559 233.522736,161.888885 
z"/>
<path fill="#115DBA" opacity="1.000000" stroke="none" 
	d="
M194.225357,144.405762 
	C202.786438,143.597595 209.648254,147.644302 216.502060,151.741211 
	C218.162201,152.733582 219.896194,153.602386 221.816772,154.810379 
	C212.548737,155.092743 203.060135,155.092743 192.920853,155.092743 
	C193.367340,151.164246 193.732529,147.950897 194.225357,144.405762 
z"/>
<path fill="#0A92DE" opacity="1.000000" stroke="none" 
	d="
M301.848145,145.486359 
	C309.282410,142.216415 316.716705,138.946472 324.541565,136.010925 
	C325.283356,138.826416 325.634552,141.307495 325.985718,143.788589 
	C319.559052,146.817841 313.132355,149.847092 306.181030,152.594330 
	C304.386963,150.036987 303.117554,147.761673 301.848145,145.486359 
z"/>
<path fill="#09A6E9" opacity="1.000000" stroke="none" 
	d="
M326.323059,143.720215 
	C325.634552,141.307495 325.283356,138.826416 324.899780,135.894531 
	C330.664246,131.617828 336.461090,127.791946 342.570312,123.808975 
	C343.579346,126.250847 344.276062,128.849792 345.030212,131.848755 
	C338.945251,136.049805 332.802795,139.850830 326.323059,143.720215 
z"/>
<path fill="#0BB4F0" opacity="1.000000" stroke="none" 
	d="
M252.652435,49.422520 
	C254.261032,51.789158 255.507126,54.144978 256.577271,56.994446 
	C250.948105,60.366268 245.494904,63.244453 239.984360,65.766907 
	C237.967270,63.799557 236.007523,62.187939 234.047791,60.576317 
	C238.713898,54.543427 245.089691,51.304012 252.652435,49.422520 
z"/>
<path fill="#11C3F6" opacity="1.000000" stroke="none" 
	d="
M341.807312,83.905594 
	C340.473907,86.541351 339.371063,88.877823 338.161499,91.440445 
	C337.883148,84.007263 333.644501,80.323921 326.252167,79.434044 
	C332.780945,78.138016 337.282104,74.838707 338.530365,67.675659 
	C340.303741,73.980270 343.710663,77.998093 349.533112,79.280884 
	C347.080902,80.696037 344.559387,82.151169 341.807312,83.905594 
z"/>
<path fill="#0985D6" opacity="1.000000" stroke="none" 
	d="
M301.460938,145.568634 
	C303.117554,147.761673 304.386963,150.036987 305.811493,152.613083 
	C300.287750,155.054367 294.608856,157.194870 288.471680,158.964020 
	C287.338928,156.050308 286.664429,153.507965 285.989960,150.965607 
	C291.017883,149.194046 296.045807,147.422485 301.460938,145.568634 
z"/>
<path fill="#0A7DD0" opacity="1.000000" stroke="none" 
	d="
M285.595581,150.963654 
	C286.664429,153.507965 287.338928,156.050308 288.075958,158.991486 
	C283.688934,160.934540 279.239349,162.478760 274.395752,164.011841 
	C271.530853,162.166428 269.259888,160.222824 269.964294,156.235443 
	C275.033112,154.205109 280.117126,152.583405 285.595581,150.963654 
z"/>
<path fill="#09A6E9" opacity="1.000000" stroke="none" 
	d="
M233.789093,60.732887 
	C236.007523,62.187939 237.967270,63.799557 239.865585,66.084839 
	C237.539337,70.840538 235.274506,74.922577 233.009689,79.004623 
	C230.634293,77.938652 228.258896,76.872681 225.729095,75.391548 
	C228.226593,70.280739 230.878494,65.585091 233.789093,60.732887 
z"/>
<path fill="#0A7DD0" opacity="1.000000" stroke="none" 
	d="
M256.563171,150.297424 
	C254.800140,148.441391 253.451141,146.561203 252.048782,144.342636 
	C253.116974,143.762222 254.238510,143.520172 255.680634,143.137878 
	C259.417328,142.466248 262.860962,142.067856 266.242340,141.368515 
	C270.146454,140.561081 273.092621,141.534637 274.955353,145.580933 
	C268.990356,147.381119 262.983795,148.827209 256.563171,150.297424 
z"/>
<path fill="#115DBA" opacity="1.000000" stroke="none" 
	d="
M189.624100,185.507080 
	C188.388702,187.004791 186.753113,188.329681 184.971619,189.973190 
	C178.501297,187.876465 172.171707,185.474197 165.872650,182.994400 
	C165.639206,182.902496 165.703629,182.053986 165.369537,181.249481 
	C165.109833,180.940903 165.086609,180.908997 165.086609,180.908997 
	C173.132370,182.384094 181.178131,183.859177 189.624100,185.507080 
z"/>
<path fill="#327CC8" opacity="1.000000" stroke="none" 
	d="
M350.779968,299.270813 
	C366.226593,298.994690 381.536072,299.002533 397.296631,298.981689 
	C396.665833,299.578796 395.588409,300.740143 394.501434,300.749207 
	C380.639160,300.864868 366.775421,300.835022 352.912567,300.754395 
	C352.153656,300.750000 351.399292,299.972443 350.779968,299.270813 
z"/>
<path fill="#136AC2" opacity="1.000000" stroke="none" 
	d="
M161.749939,136.645355 
	C158.369705,136.944244 155.151703,136.970108 151.469223,136.999664 
	C154.452454,133.054276 157.900177,129.105209 161.816132,125.377327 
	C163.176620,126.395493 164.068863,127.192459 164.961105,127.989433 
	C163.944794,130.783737 162.928497,133.578049 161.749939,136.645355 
z"/>
<path fill="#1588D6" opacity="1.000000" stroke="none" 
	d="
M309.653229,162.318787 
	C310.198669,164.422607 310.392212,166.562317 310.294708,168.848755 
	C306.922729,170.325272 303.841827,171.655060 300.387756,172.988693 
	C299.829773,171.135117 299.644897,169.277664 299.156433,167.163956 
	C302.335663,165.390015 305.818512,163.872330 309.653229,162.318787 
z"/>
<path fill="#11C3F6" opacity="1.000000" stroke="none" 
	d="
M354.563446,88.538727 
	C356.323303,87.097687 357.770874,85.819771 359.132019,84.618172 
	C361.086426,86.431358 363.292847,88.478340 365.110657,90.164803 
	C363.210266,91.553047 361.193573,93.026245 358.919434,94.687515 
	C357.063354,93.252914 354.814240,91.514503 352.184082,89.481583 
	C352.985138,89.179413 353.618164,88.940628 354.563446,88.538727 
z"/>
<path fill="#115DBA" opacity="1.000000" stroke="none" 
	d="
M210.592926,185.471802 
	C208.390411,187.859573 209.416855,189.499573 211.306427,192.065964 
	C215.127441,197.255646 218.150955,203.032486 221.261200,208.767395 
	C216.469269,202.624542 211.885696,196.305222 207.404541,189.914093 
	C206.695938,188.903458 206.449722,187.568634 205.968781,186.046326 
	C207.354980,185.610397 208.762131,185.511826 210.592926,185.471802 
z"/>
<path fill="#1876C9" opacity="1.000000" stroke="none" 
	d="
M165.184357,127.733887 
	C164.068863,127.192459 163.176620,126.395493 162.150665,125.327255 
	C165.991058,122.122810 169.965164,119.189644 173.939255,116.256477 
	C174.360931,116.764977 174.782608,117.273483 175.204285,117.781982 
	C171.938736,121.014099 168.673187,124.246223 165.184357,127.733887 
z"/>
<path fill="#327CC8" opacity="1.000000" stroke="none" 
	d="
M407.571716,296.962036 
	C409.898987,297.560333 411.849640,298.665863 413.913177,298.949188 
	C416.680115,299.329071 419.534363,299.072845 422.837036,299.114990 
	C422.092224,299.696869 420.881012,300.675354 419.627289,300.733307 
	C415.357666,300.930450 411.073059,300.812500 406.794342,300.785278 
	C406.352448,300.782471 405.911804,300.581909 404.999512,300.356903 
	C405.862732,299.106262 406.554016,298.104675 407.571716,296.962036 
z"/>
<path fill="#077ACF" opacity="1.000000" stroke="none" 
	d="
M312.296387,211.448425 
	C312.260681,210.743607 312.570587,210.133545 312.880493,209.523468 
	C313.243896,209.905090 313.607330,210.286697 314.010620,211.011932 
	C313.580994,211.418121 313.111481,211.480652 312.296387,211.448425 
z"/>
<path fill="#115DBA" opacity="1.000000" stroke="none" 
	d="
M165.129883,180.937408 
	C164.943695,180.813492 164.737488,180.693039 164.531265,180.572601 
	C164.625534,180.738754 164.719803,180.904907 164.950348,180.990021 
	C165.086609,180.908997 165.109833,180.940903 165.129883,180.937408 
z"/>
<path fill="#0866C2" opacity="1.000000" stroke="none" 
	d="
M404.081726,252.743256 
	C403.779480,252.755112 403.640442,252.539368 403.548218,252.305206 
	C403.534943,252.271515 403.747162,252.149033 404.049622,251.995056 
	C404.249451,252.118256 404.254700,252.314011 404.081726,252.743256 
z"/>
<path fill="#FBFBFB" opacity="1.000000" stroke="none" 
	d="
M201.123032,269.848267 
	C199.114014,284.190125 187.826233,292.420013 175.324097,289.030853 
	C170.862640,287.821381 167.543442,285.165222 166.039658,280.764709 
	C163.444626,273.170959 165.137482,266.199127 170.319397,260.327667 
	C175.374069,254.600433 181.897430,252.070099 189.589813,253.785355 
	C197.514709,255.552505 200.833160,260.144989 201.123032,269.848267 
z"/>
<path fill="#FBFBFB" opacity="1.000000" stroke="none" 
	d="
M264.082642,261.115997 
	C262.831360,269.192719 259.187317,272.384857 250.883987,272.818878 
	C247.429138,272.999451 243.956970,272.848846 239.716675,272.848846 
	C240.695251,266.372650 241.612137,260.304657 242.559830,254.032944 
	C247.667877,254.032944 252.450882,253.750031 257.182281,254.122650 
	C260.951691,254.419495 263.650024,256.556671 264.082642,261.115997 
z"/>
<path fill="#FBFDFE" opacity="1.000000" stroke="none" 
	d="
M232.884247,79.406380 
	C235.274506,74.922577 237.539337,70.840538 239.922928,66.440567 
	C245.494904,63.244453 250.948105,60.366268 256.716644,57.308662 
	C273.816559,56.846989 284.896759,66.463127 287.967957,84.038689 
	C288.367737,86.326500 288.525391,88.656639 288.847321,91.367432 
	C283.571594,91.947502 278.243683,92.127319 272.458069,92.406479 
	C265.639801,92.447754 259.279236,92.389687 252.458878,92.423996 
	C248.300629,92.454536 244.602188,92.392693 240.451324,92.423340 
	C237.612213,92.439430 235.225540,92.363037 232.392303,92.335304 
	C232.216766,88.192024 232.487778,84.000076 232.884247,79.406380 
z"/>
<path fill="#FBFBFB" opacity="1.000000" stroke="none" 
	d="
M230.775635,107.516579 
	C229.657837,108.519608 228.613174,109.148651 227.283875,109.896072 
	C224.735764,108.560654 219.840988,108.769920 223.349594,103.554214 
	C228.329636,101.043442 229.923019,101.894051 230.775635,107.516579 
z"/>
<path fill="#FBFBFB" opacity="1.000000" stroke="none" 
	d="
M288.067444,104.544182 
	C289.678436,103.459579 291.278931,102.180649 292.878784,102.181404 
	C294.182617,102.182022 296.322388,103.520844 296.574585,104.615677 
	C296.880951,105.945801 295.595306,107.642593 294.754211,109.457489 
	C291.212463,109.655273 288.652435,108.591080 288.067444,104.544182 
z"/>
</svg>